<?xml version="1.0" encoding="utf-8"?>
<!-- Generator: Adobe Illustrator 21.1.0, SVG Export Plug-In . SVG Version: 6.00 Build 0)  -->
<svg version="1.1" id="Layer_1" xmlns="http://www.w3.org/2000/svg" xmlns:xlink="http://www.w3.org/1999/xlink" x="0px" y="0px"
	 viewBox="0 0 190 40" style="enable-background:new 0 0 190 40;" xml:space="preserve">
<style type="text/css">
	.st0{fill:#19A0B2;}
</style>
<path d="M11.1,16.4h8.5l0.3-3.4h-9.5c-3.1,0.1-4.8,2.5-5.3,6.9s0.7,6.8,3.6,6.9h9.8l0.3-3.6H9.9c-0.6-0.1-0.9-0.5-1-1.1
	C8.7,20.5,9,18.8,9.7,17C10,16.6,10.5,16.4,11.1,16.4z M30.7,12.8h-5.4c-3.1,0-4.9,2.4-5.3,7.2c-0.5,4.7,0.7,7.1,3.7,7.1h6.6
	c2.9-0.1,4.4-2.5,4.6-7.3C35.3,15.1,34,12.8,30.7,12.8z M30.9,19.8c-0.1,1.4-0.3,2.3-0.7,2.7c-0.3,0.5-0.7,0.8-1.4,0.9H25
	c-0.6-0.1-1-0.5-1.2-1.1c-0.1-0.3-0.1-1,0-2.3c0.1-1.3,0.3-2.1,0.5-2.4c0.5-0.7,1.1-1.1,1.9-1.1h2.9c0.7,0.1,1.1,0.3,1.4,0.7
	C30.9,17.4,31,18.4,30.9,19.8z M49.1,13H36.6l-1.4,14H39l1-10h3l-1,10h3.5l1-9.9h1.9c0.8,0,1.1,0.5,0.9,1.5l-0.8,8.5h3.5l0.9-9.5
	C53.1,14.4,51.9,13,49.1,13z M64.2,13h-9.7l-1.4,14h4.1l0.5-4.3h5.7c2.9-0.2,4.5-1.8,4.8-4.8C68.6,14.8,67.2,13.2,64.2,13z
	 M64.6,17.8c-0.1,0.7-0.5,1.1-1.3,1.1h-5.1l0.3-2.4h5.1C64.4,16.6,64.8,17,64.6,17.8z M79.6,13l-1,9.9h-5.1c-0.8,0.1-1.1-0.3-1-1.3
	l0.9-8.7h-3.7l-0.9,9.5c-0.1,3,1.1,4.5,3.9,4.4h9.4L83.5,13C83.5,13,79.6,13,79.6,13z M96.9,13H84.5l-1.4,14h3.8l1-10h3l-1,10h3.5
	l1-9.9h1.9c0.8,0,1.1,0.5,0.9,1.5L96.3,27h3.5l0.9-9.5C101,14.4,99.7,13,96.9,13L96.9,13z M112.2,13l-1,9.9h-5.1
	c-0.8,0.1-1.1-0.3-1-1.3L106,13h-3.7l-0.9,9.5c-0.1,3,1.1,4.5,3.9,4.4h9.4l1.4-13.9L112.2,13L112.2,13z M126.5,13H117l-1.4,14h3.9
	l1-10h5.1c0.9-0.1,1.2,0.3,1,1.3l-0.9,8.7h3.7l0.9-9.5C130.5,14.4,129.3,13,126.5,13z M141.2,13.1h-9.5L130.3,27h9.7
	c2.9-0.2,4.5-2.5,4.9-6.9S144.2,13.2,141.2,13.1z M141.6,20c-0.1,1.1-0.3,1.9-0.7,2.5c-0.3,0.5-0.7,0.9-1.3,0.9h-5.5l0.7-6.9h5.1
	c0.7,0,1.1,0.3,1.3,0.7C141.7,18,141.8,18.9,141.6,20z M156.4,12.8h-5.3c-3.1,0-4.9,2.4-5.3,7.2c-0.5,4.7,0.7,7.1,3.7,7.1h6.6
	c2.9-0.1,4.4-2.5,4.6-7.3C161,15.1,159.7,12.8,156.4,12.8L156.4,12.8z M156.6,19.8c-0.1,1.4-0.3,2.3-0.7,2.7
	c-0.3,0.5-0.7,0.8-1.4,0.9h-3.9c-0.6-0.1-1-0.5-1.2-1.1c-0.1-0.3-0.1-1,0-2.3c0.1-1.3,0.3-2.1,0.5-2.4c0.3-0.7,0.9-1.2,1.8-1.3h2.9
	c0.7,0.1,1.1,0.3,1.4,0.7C156.6,17.4,156.8,18.4,156.6,19.8L156.6,19.8z"/>
<path class="st0" d="M172.6,21.9c-0.5,0-0.7,0.1-0.8,0.3c-0.1,0.1-0.2,0.5-0.2,1.1c0,0.7,0.1,1.1,0.2,1.2c0.1,0.1,0.4,0.3,0.9,0.3
	s0.7-0.1,0.8-0.3c0.1-0.2,0.2-0.6,0.2-1.3c0-0.5-0.1-0.9-0.2-1.1C173.3,22,173,21.9,172.6,21.9z M182.7,19.2h-20.2
	c0,0.4-0.1,0.9-0.1,1.3c-0.1,3.3-1.3,5.5-2.7,6.7h24.6l0.5-5.5C185.1,20,184.4,19.1,182.7,19.2z M164.4,24.8c0,0.3-0.1,0.5-0.1,0.5
	c-0.1,0.1-0.1,0.1-0.3,0.2h-0.8c-0.1,0-0.2-0.1-0.3-0.2v-0.5c0-0.3,0.1-0.4,0.1-0.5c0.1-0.1,0.2-0.3,0.3-0.3h0.6
	c0.1,0,0.2,0.1,0.3,0.1C164.4,24.3,164.5,24.5,164.4,24.8z M169.7,24l-0.1,0.7c-0.1,0.6-0.7,0.9-1.9,0.9c-0.8,0-1.4-0.1-1.7-0.5
	c-0.3-0.3-0.4-0.9-0.4-1.8c0-0.9,0.1-1.5,0.4-1.8c0.3-0.3,0.8-0.5,1.6-0.5c0.7,0,1.3,0.1,1.5,0.3c0.3,0.2,0.4,0.7,0.4,1.3h-1.1
	c0-0.5-0.3-0.7-0.9-0.7c-0.4,0-0.7,0.1-0.8,0.3c-0.1,0.1-0.1,0.5-0.1,1.2c0,0.6,0.1,1,0.2,1.1c0.1,0.1,0.4,0.3,0.9,0.3
	c0.3,0,0.6-0.1,0.7-0.1c0.1-0.1,0.1-0.3,0.1-0.7L169.7,24C169.7,23.9,169.7,24,169.7,24z M174.3,25.1c-0.3,0.3-0.8,0.5-1.6,0.5
	c-0.9,0-1.5-0.1-1.7-0.4c-0.3-0.3-0.4-0.9-0.4-1.9c0-0.9,0.1-1.5,0.4-1.8c0.3-0.3,0.8-0.4,1.7-0.4s1.4,0.1,1.7,0.4
	c0.3,0.3,0.4,0.9,0.4,1.7C174.7,24.2,174.5,24.8,174.3,25.1z M182.3,25.5h-1.1v-2.7c0-0.6-0.3-0.9-0.7-0.9c-0.7,0-0.9,0.3-0.9,1.1
	v2.5h-1.1v-2.7c0-0.3-0.1-0.6-0.1-0.7c-0.1-0.1-0.3-0.2-0.6-0.2c-0.7,0-0.9,0.3-0.9,1.1v2.6h-1.1v-4.3h1.1v0.7
	c0.2-0.5,0.7-0.7,1.3-0.7c0.8,0,1.2,0.3,1.3,0.8c0.2-0.5,0.7-0.8,1.3-0.8c1,0,1.5,0.5,1.5,1.5L182.3,25.5L182.3,25.5z"/>
<path d="M164.1,24.1h-0.6c-0.2,0-0.3,0.1-0.3,0.3c-0.1,0.1-0.1,0.2-0.1,0.5v0.5c0.1,0.1,0.1,0.2,0.3,0.2h0.8c0.1,0,0.2-0.1,0.3-0.2
	c0.1-0.1,0.1-0.3,0.1-0.5s0-0.5-0.1-0.5C164.3,24.2,164.2,24.1,164.1,24.1L164.1,24.1z M168.5,24.6c-0.1,0.1-0.3,0.1-0.7,0.1
	c-0.5,0-0.7-0.1-0.9-0.3c-0.1-0.1-0.2-0.5-0.2-1.1c0-0.6,0.1-1,0.1-1.2c0.1-0.1,0.4-0.3,0.8-0.3c0.6,0,0.9,0.3,0.9,0.7h1.1
	c0-0.6-0.1-1.1-0.4-1.3s-0.8-0.3-1.5-0.3c-0.8,0-1.3,0.1-1.6,0.5c-0.3,0.3-0.4,0.9-0.4,1.8c0,0.9,0.1,1.5,0.4,1.8
	c0.3,0.3,0.8,0.5,1.7,0.5c1.1,0,1.7-0.3,1.9-0.9l0.1-0.7v-0.1h-1.1C168.7,24.2,168.6,24.4,168.5,24.6z M172.6,21.1
	c-0.9,0-1.4,0.1-1.7,0.4c-0.3,0.3-0.4,0.9-0.4,1.8c0,0.9,0.1,1.6,0.4,1.9c0.3,0.3,0.9,0.4,1.7,0.4c0.8,0,1.3-0.1,1.6-0.5
	c0.3-0.3,0.4-0.9,0.4-1.9c0-0.9-0.1-1.5-0.4-1.7C174,21.2,173.5,21.1,172.6,21.1z M173.4,24.4c-0.1,0.2-0.4,0.3-0.8,0.3
	c-0.5,0-0.7-0.1-0.9-0.3c-0.1-0.1-0.2-0.6-0.2-1.2c0-0.6,0.1-0.9,0.2-1.1c0.1-0.1,0.4-0.3,0.8-0.3s0.7,0.1,0.8,0.2
	c0.1,0.1,0.2,0.5,0.2,1.1C173.6,23.9,173.5,24.3,173.4,24.4z M180.8,21.1c-0.7,0-1.1,0.3-1.3,0.8c-0.1-0.5-0.5-0.8-1.3-0.8
	c-0.7,0-1.1,0.3-1.3,0.7v-0.7h-1.1v4.3h1.1V23c0-0.7,0.3-1.1,0.9-1.1c0.3,0,0.5,0.1,0.6,0.2c0.1,0.1,0.1,0.3,0.1,0.7v2.7h1.1V23
	c0-0.7,0.3-1.1,0.9-1.1c0.5,0,0.7,0.3,0.7,0.9v2.7h1.1v-2.9C182.3,21.6,181.8,21.1,180.8,21.1z"/>
</svg>
