<?xml version="1.0" encoding="utf-8"?>
<!-- Generator: Adobe Illustrator 21.1.0, SVG Export Plug-In . SVG Version: 6.00 Build 0)  -->
<svg version="1.1" id="Layer_1" xmlns="http://www.w3.org/2000/svg" xmlns:xlink="http://www.w3.org/1999/xlink" x="0px" y="0px"
	 viewBox="0 0 190 40" style="enable-background:new 0 0 190 40;" xml:space="preserve">
<style type="text/css">
	.st0{fill:#E53035;}
</style>
<g>
	<path class="st0" d="M95.8,17c-0.1-0.2-0.1-0.2-0.2,0l-1.4,4.7c-0.1,0.2,0.1,0.3,0.2,0.3H97c0.2,0,0.3-0.2,0.3-0.3L95.8,17z
		 M92.1,11c0.1-0.2,0.3-0.3,0.5-0.3H99c0.2,0,0.4,0.1,0.5,0.3l6.5,17.9c0.1,0.2,0,0.3-0.2,0.3H100c-0.2,0-0.4-0.2-0.5-0.3L99,27.3
		C99,27.2,98.8,27,98.6,27h-5.8c-0.2,0-0.4,0.2-0.5,0.3l-0.5,1.6c-0.1,0.2-0.3,0.3-0.5,0.3h-5.7c-0.2,0-0.3-0.1-0.2-0.3L92.1,11z"/>
	<path class="st0" d="M164.6,23.6c-2.8,0-3.7-2.1-3.7-3.6c0-2,1.2-3.7,3.7-3.7c2.7,0,3.7,2,3.7,3.6
		C168.3,21.6,167.3,23.6,164.6,23.6 M164.6,10.2c-6.6,0-9.9,4.6-9.9,9.8c0,4.1,2.3,9.6,9.8,9.6c7.2,0,9.9-5.2,9.9-9.8
		C174.4,15.5,171.9,10.2,164.6,10.2"/>
	<path class="st0" d="M131.9,28.9c0,0.2-0.2,0.4-0.4,0.4h-5c-0.2,0-0.4-0.2-0.4-0.4V10.9c0-0.2,0.2-0.4,0.4-0.4h5
		c0.2,0,0.4,0.2,0.4,0.4V28.9z"/>
	<path class="st0" d="M147.8,10.6c-0.2,0-0.4,0.2-0.4,0.4v9.4c0,0.2-0.1,0.2-0.2,0.1l-6.1-9.5c-0.1-0.2-0.3-0.3-0.5-0.3h-5.6
		c-0.2,0-0.4,0.2-0.4,0.4v17.9c0,0.2,0.2,0.4,0.4,0.4h4.8c0.2,0,0.4-0.2,0.4-0.4v-9.4c0-0.2,0.1-0.2,0.2-0.1l6.1,9.5
		c0.1,0.2,0.3,0.3,0.5,0.3h5.6c0.2,0,0.4-0.2,0.4-0.4V10.9c0-0.2-0.2-0.4-0.4-0.4H147.8z"/>
	<path class="st0" d="M178.1,12.9v0.9h0.7c0.1,0,0.5,0,0.5-0.5c0-0.4-0.3-0.4-0.5-0.5C178.8,12.9,178.1,12.9,178.1,12.9z
		 M177.2,12.3h1.5c0.4,0,0.8,0,1.1,0.3c0.2,0.2,0.3,0.4,0.3,0.8c0,0.7-0.5,0.9-0.7,0.9l0.8,1.4h-0.9l-0.7-1.2h-0.5v1.2h-0.9V12.3z"
		/>
	<path class="st0" d="M178.4,16.8c-1.5,0-2.8-1.2-2.8-2.8s1.2-2.8,2.8-2.8c1.5,0,2.8,1.2,2.8,2.8S179.9,16.8,178.4,16.8 M178.4,10.2
		c-2.1,0-3.8,1.7-3.8,3.8c0,2.1,1.7,3.8,3.8,3.8c2.1,0,3.8-1.7,3.8-3.8C182.2,11.9,180.5,10.2,178.4,10.2"/>
	<path class="st0" d="M37.1,17c-0.1-0.2-0.1-0.2-0.2,0l-1.4,4.7c-0.1,0.2,0.1,0.3,0.2,0.3h2.6c0.2,0,0.3-0.2,0.3-0.3L37.1,17z
		 M33.3,11c0.1-0.2,0.3-0.3,0.5-0.3h6.5c0.2,0,0.4,0.1,0.5,0.3l6.5,17.9c0.1,0.2,0,0.3-0.2,0.3h-5.7c-0.2,0-0.4-0.2-0.5-0.3
		l-0.5-1.6C40.2,27.2,40,27,39.8,27h-5.8c-0.2,0-0.4,0.2-0.5,0.3l-0.5,1.6c-0.1,0.2-0.3,0.3-0.5,0.3h-5.7c-0.2,0-0.3-0.1-0.2-0.3
		L33.3,11z"/>
	<path class="st0" d="M56.3,18.7h-1.6v-3.2h1.6c0.8,0,2.1,0,2.1,1.6C58.4,18.7,57.1,18.7,56.3,18.7 M61.6,22.9
		c2.6-1.1,3.6-3.7,3.6-6c0-2.8-1.8-6.3-6.7-6.3v0h-4.7v0h-5.3v18.7h6.3v-5.7h0.8l3.5,5.7h6.3L61.6,22.9z"/>
	<path class="st0" d="M115.1,18.7h-1.6v-3.2h1.6c0.8,0,2.1,0,2.1,1.6C117.2,18.7,115.8,18.7,115.1,18.7 M120.4,22.9
		c2.6-1.1,3.6-3.7,3.6-6c0-2.8-1.8-6.3-6.7-6.3v0h-4.7v0h-5.3v18.7h6.3v-5.7h0.8l3.5,5.7h6.3L120.4,22.9z"/>
	<path class="st0" d="M74.8,25h-0.7v-2.8h0.5c1.1,0,2.8-0.1,2.8,1.4C77.4,24.9,75.9,25,74.8,25 M74.1,15.2h0.5
		c1.1,0,2.5-0.1,2.5,1.4c0,1.4-1.3,1.5-2.4,1.5h-0.7C74.1,18,74.1,15.2,74.1,15.2z M82.2,19.7v-0.1c1.6-0.5,2.2-2.1,2.2-3.8
		c0-4.3-3.7-5.2-7.3-5.2h-9.4l0,0h-0.1c-0.2,0-0.4,0.2-0.4,0.4v18c0,0.2,0.2,0.4,0.4,0.4h3.3h0h7.5c3.3,0,6.8-1.3,6.8-5.2
		C85.3,21.9,84.3,20.4,82.2,19.7"/>
	<path class="st0" d="M18.4,19v3.7h2.7c-0.7,0.9-1.7,1.6-3.4,1.6c-3.2,0-4.1-2.4-4.1-4.2c0-2.2,1.4-4.2,4.2-4.2
		c1.7,0,2.8,0.7,3.4,1.7l5.8-0.8c-0.6-3.2-3.3-6.6-9.3-6.6c-6.7,0-9.9,4.7-9.9,10c0,4.2,2.3,9.8,9.8,9.8c5.5,0,8.3-3.1,9.4-6.6
		c0.4-1.4,0.5-2.7,0.5-4.3L18.4,19L18.4,19z"/>
</g>
</svg>
